<svg xmlns="http://www.w3.org/2000/svg" viewBox="0 0 400 300" role="img" aria-label="Green cardamom pods">
  <defs>
    <linearGradient id="bg" x1="0" y1="0" x2="1" y2="1">
      <stop offset="0%" stop-color="#FAF8F3"/>
      <stop offset="100%" stop-color="#F5F0E8"/>
    </linearGradient>
    <linearGradient id="pod" x1="0" y1="0" x2="1" y2="1">
      <stop offset="0%" stop-color="#6B9E5A"/>
      <stop offset="100%" stop-color="#3D6B32"/>
    </linearGradient>
  </defs>
  <rect width="400" height="300" fill="url(#bg)"/>
  <ellipse cx="200" cy="260" rx="120" ry="18" fill="rgba(201,162,39,0.12)"/>
  <g transform="translate(200 155)">
    <ellipse cx="-55" cy="10" rx="22" ry="38" fill="url(#pod)" transform="rotate(-18 -55 10)"/>
    <ellipse cx="-18" cy="0" rx="24" ry="42" fill="url(#pod)" transform="rotate(-6 -18 0)"/>
    <ellipse cx="22" cy="-2" rx="24" ry="44" fill="url(#pod)" transform="rotate(8 22 -2)"/>
    <ellipse cx="58" cy="8" rx="22" ry="38" fill="url(#pod)" transform="rotate(20 58 8)"/>
    <path d="M-55 10 Q-55 -18 -38 -28" stroke="#2D5018" stroke-width="2" fill="none" opacity="0.5"/>
    <path d="M58 8 Q58 -20 42 -30" stroke="#2D5018" stroke-width="2" fill="none" opacity="0.5"/>
  </g>
  <rect x="0" y="292" width="400" height="8" fill="#C9A227" opacity="0.35"/>
</svg>
