<svg xmlns="http://www.w3.org/2000/svg" viewBox="0 0 400 300" role="img" aria-label="Cinnamon sticks">
  <defs>
    <linearGradient id="bg" x1="0" y1="0" x2="1" y2="1">
      <stop offset="0%" stop-color="#FAF8F3"/>
      <stop offset="100%" stop-color="#F5F0E8"/>
    </linearGradient>
    <linearGradient id="cinnamon" x1="0" y1="0" x2="1" y2="0">
      <stop offset="0%" stop-color="#A86B3A"/>
      <stop offset="100%" stop-color="#6B3F1F"/>
    </linearGradient>
  </defs>
  <rect width="400" height="300" fill="url(#bg)"/>
  <ellipse cx="200" cy="258" rx="125" ry="18" fill="rgba(201,162,39,0.12)"/>
  <g transform="translate(200 155)">
    <path d="M-70 40 C-70 -20 -40 -55 0 -55 C40 -55 70 -20 70 40" fill="none" stroke="url(#cinnamon)" stroke-width="22" stroke-linecap="round"/>
    <path d="M-55 35 C-55 -10 -30 -40 5 -40 C40 -40 65 -10 65 35" fill="none" stroke="#8B5228" stroke-width="18" stroke-linecap="round" opacity="0.85"/>
    <path d="M-40 30 C-40 0 -20 -25 10 -25 C40 -25 60 0 60 30" fill="none" stroke="#C9A227" stroke-width="14" stroke-linecap="round" opacity="0.55"/>
  </g>
  <rect x="0" y="292" width="400" height="8" fill="#C9A227" opacity="0.35"/>
</svg>
