<svg xmlns="http://www.w3.org/2000/svg" viewBox="0 0 400 300" role="img" aria-label="Whole cloves">
  <defs>
    <linearGradient id="bg" x1="0" y1="0" x2="1" y2="1">
      <stop offset="0%" stop-color="#FAF8F3"/>
      <stop offset="100%" stop-color="#F5F0E8"/>
    </linearGradient>
    <linearGradient id="clove" x1="0" y1="0" x2="0" y2="1">
      <stop offset="0%" stop-color="#6B3A2E"/>
      <stop offset="100%" stop-color="#3D2018"/>
    </linearGradient>
  </defs>
  <rect width="400" height="300" fill="url(#bg)"/>
  <ellipse cx="200" cy="258" rx="120" ry="18" fill="rgba(201,162,39,0.12)"/>
  <g transform="translate(200 165)">
    <path d="M-50 30 C-50 -10 -35 -35 -20 -40 C-5 -45 5 -35 0 -5 C-5 25 -25 45 -50 30 Z" fill="url(#clove)"/>
    <path d="M-5 28 C-5 -8 8 -32 22 -36 C36 -40 46 -28 40 0 C34 28 14 44 -5 28 Z" fill="url(#clove)"/>
    <path d="M40 32 C40 -5 55 -28 70 -32 C85 -36 95 -24 88 4 C81 32 60 46 40 32 Z" fill="url(#clove)"/>
    <circle cx="-20" cy="-40" r="6" fill="#C9A227" opacity="0.5"/>
    <circle cx="22" cy="-36" r="6" fill="#C9A227" opacity="0.5"/>
    <circle cx="70" cy="-32" r="6" fill="#C9A227" opacity="0.5"/>
  </g>
  <rect x="0" y="292" width="400" height="8" fill="#C9A227" opacity="0.35"/>
</svg>
