<svg xmlns="http://www.w3.org/2000/svg" viewBox="0 0 400 300" role="img" aria-label="Dried ginger root">
  <defs>
    <linearGradient id="bg" x1="0" y1="0" x2="1" y2="1">
      <stop offset="0%" stop-color="#FAF8F3"/>
      <stop offset="100%" stop-color="#F5F0E8"/>
    </linearGradient>
    <linearGradient id="ginger" x1="0" y1="0" x2="1" y2="1">
      <stop offset="0%" stop-color="#D4A574"/>
      <stop offset="100%" stop-color="#9A6535"/>
    </linearGradient>
  </defs>
  <rect width="400" height="300" fill="url(#bg)"/>
  <ellipse cx="200" cy="258" rx="130" ry="20" fill="rgba(201,162,39,0.12)"/>
  <path d="M120 190 C130 120 170 90 210 110 C250 130 270 170 260 210 C250 240 210 250 180 230 C150 210 110 230 120 190 Z" fill="url(#ginger)"/>
  <path d="M210 110 C240 80 290 95 300 140 C310 185 280 220 250 210" fill="none" stroke="#8B5A2B" stroke-width="14" stroke-linecap="round"/>
  <path d="M165 145 C175 125 195 118 210 125" stroke="#7A4E28" stroke-width="3" fill="none" opacity="0.45"/>
  <path d="M145 175 C160 160 185 158 205 168" stroke="#7A4E28" stroke-width="3" fill="none" opacity="0.45"/>
  <rect x="0" y="292" width="400" height="8" fill="#C9A227" opacity="0.35"/>
</svg>
