<svg xmlns="http://www.w3.org/2000/svg" viewBox="0 0 400 300" role="img" aria-label="Ayurvedic herbs">
  <defs>
    <linearGradient id="bg" x1="0" y1="0" x2="1" y2="1">
      <stop offset="0%" stop-color="#FAF8F3"/>
      <stop offset="100%" stop-color="#F5F0E8"/>
    </linearGradient>
    <linearGradient id="herb" x1="0" y1="0" x2="0" y2="1">
      <stop offset="0%" stop-color="#7FAF65"/>
      <stop offset="100%" stop-color="#4A7340"/>
    </linearGradient>
  </defs>
  <rect width="400" height="300" fill="url(#bg)"/>
  <ellipse cx="200" cy="258" rx="120" ry="18" fill="rgba(201,162,39,0.12)"/>
  <rect x="155" y="195" width="90" height="28" rx="4" fill="#C9A227" opacity="0.25"/>
  <g transform="translate(200 145)">
    <path d="M-30 70 L-30 -10 Q-30 -45 0 -55 Q30 -45 30 -10 L30 70" fill="none" stroke="#8B6914" stroke-width="3"/>
    <path d="M0 -55 L0 70" stroke="#8B6914" stroke-width="2" opacity="0.5"/>
    <ellipse cx="-18" cy="-5" rx="14" ry="28" fill="url(#herb)" transform="rotate(-12 -18 -5)"/>
    <ellipse cx="0" cy="-15" rx="15" ry="32" fill="url(#herb)"/>
    <ellipse cx="18" cy="-5" rx="14" ry="28" fill="url(#herb)" transform="rotate(12 18 -5)"/>
    <ellipse cx="-8" cy="15" rx="12" ry="24" fill="url(#herb)" transform="rotate(-5 -8 15)"/>
    <ellipse cx="10" cy="12" rx="12" ry="24" fill="url(#herb)" transform="rotate(8 10 12)"/>
  </g>
  <rect x="0" y="292" width="400" height="8" fill="#C9A227" opacity="0.35"/>
</svg>
