<svg xmlns="http://www.w3.org/2000/svg" viewBox="0 0 400 300" role="img" aria-label="Assam tea leaves">
  <defs>
    <linearGradient id="bg" x1="0" y1="0" x2="1" y2="1">
      <stop offset="0%" stop-color="#FAF8F3"/>
      <stop offset="100%" stop-color="#F5F0E8"/>
    </linearGradient>
    <linearGradient id="leaf" x1="0" y1="0" x2="1" y2="1">
      <stop offset="0%" stop-color="#4A6741"/>
      <stop offset="100%" stop-color="#2D4228"/>
    </linearGradient>
  </defs>
  <rect width="400" height="300" fill="url(#bg)"/>
  <ellipse cx="200" cy="255" rx="125" ry="18" fill="rgba(201,162,39,0.12)"/>
  <g transform="translate(200 150)">
    <ellipse cx="-40" cy="20" rx="34" ry="18" fill="url(#leaf)" transform="rotate(-25 -40 20)"/>
    <ellipse cx="0" cy="5" rx="38" ry="20" fill="url(#leaf)" transform="rotate(5 0 5)"/>
    <ellipse cx="42" cy="18" rx="34" ry="18" fill="url(#leaf)" transform="rotate(28 42 18)"/>
    <ellipse cx="-15" cy="-25" rx="36" ry="19" fill="url(#leaf)" transform="rotate(-8 -15 -25)"/>
    <ellipse cx="25" cy="-30" rx="32" ry="17" fill="url(#leaf)" transform="rotate(15 25 -30)"/>
    <circle cx="-5" cy="0" r="8" fill="#6B4226" opacity="0.35"/>
    <circle cx="18" cy="-8" r="6" fill="#6B4226" opacity="0.35"/>
    <circle cx="-28" cy="12" r="5" fill="#6B4226" opacity="0.35"/>
  </g>
  <rect x="0" y="292" width="400" height="8" fill="#C9A227" opacity="0.35"/>
</svg>
